<?xml version="1.0" encoding="UTF-8"?>
<svg id="Layer_2" data-name="Layer 2" xmlns="http://www.w3.org/2000/svg" viewBox="0 0 587.75 73.55">
  <defs>
    <style>
      .cls-1 {
        fill: #272727;
      }
    </style>
  </defs>
  <g id="Darkmode">
    <g>
      <g>
        <path class="cls-1" d="m91.36,5.33h3.87v24.5h-3.87v-10.87h-12.13v10.87h-3.87V5.33h3.87v10.12h12.13V5.33Z"/>
        <path class="cls-1" d="m114.9,18.39v11.44h-3.54l-.18-2.28c-.96,1.71-2.7,2.73-4.98,2.73h-1.14c-3.24,0-5.7-2.37-5.7-5.76,0-3.18,2.31-5.52,6.67-5.52h5.07v-.45c0-2.04-1.23-3.57-3.81-3.57-1.77,0-3.03.81-3.81,2.22l-3.45-1.47c1.35-2.46,4.14-4.26,7.54-4.26,4.17,0,7.36,2.55,7.36,6.94Zm-7.93,8.35c1.98,0,3.84-1.11,4.11-3.06v-1.38h-4.95c-1.95,0-2.97.87-2.97,2.22s1.08,2.22,2.7,2.22h1.11Z"/>
        <path class="cls-1" d="m135.29,18.99v10.84h-3.87v-10.66c0-3.03-1.65-4.2-3.96-4.2s-4.11,1.5-4.11,3.96v10.9h-3.87V11.91h3.6l.18,2.28c1.05-1.65,2.91-2.73,5.28-2.73,3.75,0,6.76,2.88,6.76,7.54Z"/>
        <path class="cls-1" d="m137.46,11.91h4.02l4.59,12.91,4.59-12.91h4.05l-7.21,18.92c-1.17,3.15-2.82,4.56-5.04,4.56-1.68,0-3.12-.27-4.26-.72l.87-3.21c.9.3,1.74.51,2.67.51.87,0,1.59-.42,1.98-1.77l.33-.99-6.61-17.29Z"/>
        <path class="cls-1" d="m171.69,18.39v11.44h-3.54l-.18-2.28c-.96,1.71-2.7,2.73-4.98,2.73h-1.14c-3.24,0-5.7-2.37-5.7-5.76,0-3.18,2.31-5.52,6.67-5.52h5.07v-.45c0-2.04-1.23-3.57-3.81-3.57-1.77,0-3.03.81-3.81,2.22l-3.45-1.47c1.35-2.46,4.14-4.26,7.54-4.26,4.17,0,7.36,2.55,7.36,6.94Zm-7.93,8.35c1.98,0,3.84-1.11,4.11-3.06v-1.38h-4.95c-1.95,0-2.97.87-2.97,2.22s1.08,2.22,2.7,2.22h1.11Z"/>
        <path class="cls-1" d="m192.08,18.99v10.84h-3.87v-10.66c0-3.03-1.65-4.2-3.96-4.2s-4.11,1.5-4.11,3.96v10.9h-3.87V11.91h3.6l.18,2.28c1.05-1.65,2.91-2.73,5.28-2.73,3.75,0,6.76,2.88,6.76,7.54Z"/>
        <path class="cls-1" d="m209.02,11.91h3.6v15.46c0,5.46-3.87,8.02-8.41,8.02-3.48,0-6.55-1.17-7.81-3.69l3.96-1.53c.63,1.32,2.13,2.01,3.84,2.01,2.88,0,4.53-1.74,4.53-4.98v-.99c-1.38,1.62-3.42,2.52-5.58,2.52-3.57,0-7.27-3-7.27-7.81v-1.62c0-4.86,3.69-7.84,7.27-7.84,2.22,0,4.29.93,5.67,2.64l.18-2.19Zm-.27,8.86v-1.38c0-2.91-2.01-4.56-4.47-4.56s-4.5,1.65-4.5,4.56v1.38c0,2.94,2.01,4.59,4.5,4.59s4.47-1.65,4.47-4.59Z"/>
        <path class="cls-1" d="m227.43,22.26c1.2,2.85,3.63,4.5,6.85,4.5s5.16-1.2,5.16-3.39c0-2.01-1.29-2.97-3.63-3.63l-3.6-.99c-3.24-.9-6.67-2.7-6.67-6.97s3.66-6.91,8.44-6.91,7.84,2.67,9.16,5.88l-3.24,1.62c-1.08-2.28-3.03-3.99-5.92-3.99s-4.62,1.26-4.62,3.39,1.62,2.94,3.72,3.51l3.51.96c3.27.9,6.67,2.79,6.67,7.12s-3.96,6.91-8.98,6.91-8.56-2.4-10.12-6.4l3.27-1.62Z"/>
        <path class="cls-1" d="m246.47,21.99v-2.28c0-5.46,3.87-8.26,8.35-8.26,3.42,0,6.58,1.74,7.75,5.19l-3.63,1.35c-.72-2.07-2.22-3.03-4.11-3.03-2.4,0-4.47,1.59-4.47,4.86v2.04c0,3.27,2.07,4.89,4.47,4.89,1.89,0,3.39-.96,4.11-3.03l3.63,1.32c-1.17,3.45-4.32,5.22-7.75,5.22-4.47,0-8.35-2.82-8.35-8.29Z"/>
        <path class="cls-1" d="m282.48,18.96v10.87h-3.87v-10.69c0-3.15-1.65-4.29-3.96-4.29s-4.11,1.5-4.11,4.05v10.93h-3.87V5.33h3.87v8.71c1.08-1.53,2.88-2.58,5.16-2.58,3.78,0,6.79,2.88,6.79,7.51Z"/>
        <path class="cls-1" d="m286.3,21.96v-2.25c0-5.46,3.87-8.26,8.35-8.26s8.38,2.79,8.38,8.26v2.25c0,5.49-3.9,8.32-8.38,8.32s-8.35-2.82-8.35-8.32Zm12.85-.09v-2.04c0-3.27-2.1-4.86-4.5-4.86s-4.47,1.59-4.47,4.86v2.04c0,3.27,2.07,4.89,4.47,4.89s4.5-1.62,4.5-4.89Z"/>
        <path class="cls-1" d="m306.54,21.96v-2.25c0-5.46,3.87-8.26,8.35-8.26s8.38,2.79,8.38,8.26v2.25c0,5.49-3.9,8.32-8.38,8.32s-8.35-2.82-8.35-8.32Zm12.85-.09v-2.04c0-3.27-2.1-4.86-4.5-4.86s-4.47,1.59-4.47,4.86v2.04c0,3.27,2.07,4.89,4.47,4.89s4.5-1.62,4.5-4.89Z"/>
        <path class="cls-1" d="m327.53,29.83V5.33h3.87v24.5h-3.87Z"/>
        <path class="cls-1" d="m343.66,21.96v-2.25c0-5.46,3.87-8.26,8.35-8.26s8.38,2.79,8.38,8.26v2.25c0,5.49-3.9,8.32-8.38,8.32s-8.35-2.82-8.35-8.32Zm12.85-.09v-2.04c0-3.27-2.1-4.86-4.5-4.86s-4.47,1.59-4.47,4.86v2.04c0,3.27,2.07,4.89,4.47,4.89s4.5-1.62,4.5-4.89Z"/>
        <path class="cls-1" d="m369.69,11.91h4.35v3.51h-4.35v14.41h-3.87v-14.41h-2.97v-3.51h2.97v-2.1c0-3.57,2.04-5.49,5.16-5.49,1.26,0,2.88.42,3.96,1.11l-1.26,3c-.87-.42-1.47-.63-2.22-.63-1.11,0-1.77.6-1.77,2.16v1.95Z"/>
        <path class="cls-1" d="m403.14,29.83l-2.58-7.24h-9.34l-2.58,7.24h-3.96l8.8-24.5h4.8l8.83,24.5h-3.96Zm-10.69-10.72h6.88l-3.42-9.7-3.45,9.7Z"/>
        <path class="cls-1" d="m420.95,11.84l-.93,3.48c-.66-.24-1.44-.36-2.07-.36-1.8,0-3.6,1.29-3.6,3.99v10.87h-3.87V11.91h3.6l.18,2.4c.87-1.74,2.31-2.85,4.38-2.85.78,0,1.71.12,2.31.39Z"/>
        <path class="cls-1" d="m422.52,21.99v-2.28c0-5.46,3.87-8.26,8.35-8.26,3.42,0,6.58,1.74,7.75,5.19l-3.63,1.35c-.72-2.07-2.22-3.03-4.11-3.03-2.4,0-4.47,1.59-4.47,4.86v2.04c0,3.27,2.07,4.89,4.47,4.89,1.89,0,3.39-.96,4.11-3.03l3.63,1.32c-1.17,3.45-4.32,5.22-7.75,5.22-4.47,0-8.35-2.82-8.35-8.29Z"/>
        <path class="cls-1" d="m458.52,18.96v10.87h-3.87v-10.69c0-3.15-1.65-4.29-3.96-4.29s-4.11,1.5-4.11,4.05v10.93h-3.87V5.33h3.87v8.71c1.08-1.53,2.88-2.58,5.16-2.58,3.78,0,6.79,2.88,6.79,7.51Z"/>
        <path class="cls-1" d="m463.09,6.59c0-1.26,1.02-2.28,2.28-2.28s2.28,1.02,2.28,2.28-1.02,2.28-2.28,2.28-2.28-.99-2.28-2.28Zm.36,23.24V11.91h3.87v17.93h-3.87Z"/>
        <path class="cls-1" d="m483.12,29.44c-1.08.57-2.61.84-3.9.84-3.12,0-5.1-1.65-5.1-4.92v-9.94h-2.97v-3.51h2.97v-4.77h3.84v4.77h4.41v3.51h-4.41v9.37c0,1.56.69,1.98,1.83,1.98.93,0,1.65-.24,2.46-.57l.87,3.24Z"/>
        <path class="cls-1" d="m501.77,22.26h-12.64c.21,3.06,2.19,4.59,4.44,4.59,1.95,0,3.66-.87,4.38-2.67l3.51,1.08c-1.05,3.3-4.2,5.01-7.9,5.01-4.44,0-8.23-2.88-8.23-8.53v-1.8c0-5.61,3.75-8.5,8.2-8.5s8.23,2.88,8.23,8.59v2.22Zm-3.81-3.18c0-2.46-1.92-4.23-4.41-4.23-2.19,0-4.05,1.41-4.38,4.23h8.8Z"/>
        <path class="cls-1" d="m505.28,21.99v-2.28c0-5.46,3.87-8.26,8.35-8.26,3.42,0,6.58,1.74,7.75,5.19l-3.63,1.35c-.72-2.07-2.22-3.03-4.11-3.03-2.4,0-4.47,1.59-4.47,4.86v2.04c0,3.27,2.07,4.89,4.47,4.89,1.89,0,3.39-.96,4.11-3.03l3.63,1.32c-1.17,3.45-4.32,5.22-7.75,5.22-4.47,0-8.35-2.82-8.35-8.29Z"/>
        <path class="cls-1" d="m535.61,29.44c-1.08.57-2.61.84-3.9.84-3.12,0-5.1-1.65-5.1-4.92v-9.94h-2.97v-3.51h2.97v-4.77h3.84v4.77h4.41v3.51h-4.41v9.37c0,1.56.69,1.98,1.83,1.98.93,0,1.65-.24,2.46-.57l.87,3.24Z"/>
        <path class="cls-1" d="m550.39,11.91h3.87v17.93h-3.6l-.18-2.28c-1.08,1.62-2.91,2.73-5.28,2.73-3.75,0-6.76-2.88-6.76-7.57v-10.81h3.87v10.66c0,3.03,1.65,4.2,3.93,4.2s4.14-1.53,4.14-3.96v-10.9Z"/>
        <path class="cls-1" d="m569.76,11.84l-.93,3.48c-.66-.24-1.44-.36-2.07-.36-1.8,0-3.6,1.29-3.6,3.99v10.87h-3.87V11.91h3.6l.18,2.4c.87-1.74,2.31-2.85,4.38-2.85.78,0,1.71.12,2.31.39Z"/>
        <path class="cls-1" d="m587.75,22.26h-12.64c.21,3.06,2.19,4.59,4.44,4.59,1.95,0,3.66-.87,4.38-2.67l3.51,1.08c-1.05,3.3-4.2,5.01-7.9,5.01-4.44,0-8.23-2.88-8.23-8.53v-1.8c0-5.61,3.75-8.5,8.2-8.5s8.23,2.88,8.23,8.59v2.22Zm-3.81-3.18c0-2.46-1.92-4.23-4.41-4.23-2.19,0-4.05,1.41-4.38,4.23h8.8Z"/>
        <path class="cls-1" d="m74.6,58.7v-4.32c0-6.7,4.77-10.54,10.45-10.54,5.13,0,8.68,2.73,9.91,7.6l-3.66,1.08c-.93-3.45-2.82-5.07-6.25-5.07-3.6,0-6.58,2.4-6.58,7.15v3.9c0,4.74,2.97,7.15,6.58,7.15,4.47,0,6.19-3.03,6.19-5.76v-.63h-6.04v-3.36h9.88v3.48c0,6.7-4.68,9.88-10.03,9.88-5.64,0-10.45-3.84-10.45-10.54Z"/>
        <path class="cls-1" d="m109.68,50.8l-.93,3.48c-.66-.24-1.44-.36-2.07-.36-1.8,0-3.6,1.29-3.6,3.99v10.87h-3.87v-17.93h3.6l.18,2.4c.87-1.74,2.31-2.85,4.38-2.85.78,0,1.71.12,2.31.39Z"/>
        <path class="cls-1" d="m126.95,57.35v11.44h-3.54l-.18-2.28c-.96,1.71-2.7,2.73-4.98,2.73h-1.14c-3.24,0-5.7-2.37-5.7-5.76,0-3.18,2.31-5.52,6.67-5.52h5.07v-.45c0-2.04-1.23-3.57-3.81-3.57-1.77,0-3.03.81-3.81,2.22l-3.45-1.47c1.35-2.46,4.14-4.26,7.54-4.26,4.17,0,7.36,2.55,7.36,6.94Zm-7.93,8.35c1.98,0,3.84-1.11,4.11-3.06v-1.38h-4.95c-1.95,0-2.97.87-2.97,2.22s1.08,2.22,2.7,2.22h1.11Z"/>
        <path class="cls-1" d="m143.61,44.29h3.87v24.5h-3.6l-.18-2.31c-1.38,1.8-3.42,2.76-5.67,2.76-3.69,0-7.27-3.12-7.27-8.53v-1.8c0-5.34,3.57-8.5,7.27-8.5,2.19,0,4.2.93,5.58,2.67v-8.8Zm0,16.33v-1.59c0-3.45-2.01-5.1-4.47-5.1s-4.5,1.65-4.5,5.1v1.59c0,3.45,2.01,5.1,4.5,5.1s4.47-1.65,4.47-5.1Z"/>
        <path class="cls-1" d="m164.01,50.86h3.87v17.93h-3.6l-.18-2.28c-1.08,1.62-2.91,2.73-5.28,2.73-3.75,0-6.76-2.88-6.76-7.57v-10.81h3.87v10.66c0,3.03,1.65,4.2,3.93,4.2s4.14-1.53,4.14-3.96v-10.9Z"/>
        <path class="cls-1" d="m187.55,57.35v11.44h-3.54l-.18-2.28c-.96,1.71-2.7,2.73-4.98,2.73h-1.14c-3.24,0-5.7-2.37-5.7-5.76,0-3.18,2.31-5.52,6.67-5.52h5.07v-.45c0-2.04-1.23-3.57-3.81-3.57-1.77,0-3.03.81-3.81,2.22l-3.45-1.47c1.35-2.46,4.14-4.26,7.54-4.26,4.17,0,7.36,2.55,7.36,6.94Zm-7.93,8.35c1.98,0,3.84-1.11,4.11-3.06v-1.38h-4.95c-1.95,0-2.97.87-2.97,2.22s1.08,2.22,2.7,2.22h1.11Z"/>
        <path class="cls-1" d="m202.27,68.4c-1.08.57-2.61.84-3.9.84-3.12,0-5.1-1.65-5.1-4.92v-9.94h-2.97v-3.51h2.97v-4.77h3.84v4.77h4.41v3.51h-4.41v9.37c0,1.56.69,1.98,1.83,1.98.93,0,1.65-.24,2.46-.57l.87,3.24Z"/>
        <path class="cls-1" d="m205.54,45.55c0-1.26,1.02-2.28,2.28-2.28s2.28,1.02,2.28,2.28-1.02,2.28-2.28,2.28-2.28-.99-2.28-2.28Zm.36,23.24v-17.93h3.87v17.93h-3.87Z"/>
        <path class="cls-1" d="m213.92,60.92v-2.25c0-5.46,3.87-8.26,8.35-8.26s8.38,2.79,8.38,8.26v2.25c0,5.49-3.9,8.32-8.38,8.32s-8.35-2.82-8.35-8.32Zm12.85-.09v-2.04c0-3.27-2.1-4.86-4.5-4.86s-4.47,1.59-4.47,4.86v2.04c0,3.27,2.07,4.89,4.47,4.89s4.5-1.62,4.5-4.89Z"/>
        <path class="cls-1" d="m250.74,57.95v10.84h-3.87v-10.66c0-3.03-1.65-4.2-3.96-4.2s-4.11,1.5-4.11,3.96v10.9h-3.87v-17.93h3.6l.18,2.28c1.05-1.65,2.91-2.73,5.28-2.73,3.75,0,6.76,2.88,6.76,7.54Z"/>
        <path class="cls-1" d="m267.19,65.37h12.1v3.42h-15.97v-24.5h15.67v3.42h-11.8v6.73h11.23v3.42h-11.23v7.51Z"/>
        <path class="cls-1" d="m281.46,68.79l6.46-9.07-6.22-8.86h4.35l3.96,5.88,3.96-5.88h4.38l-6.22,8.86,6.46,9.07h-4.38l-4.2-6.1-4.17,6.1h-4.38Z"/>
        <path class="cls-1" d="m317.49,57.92v10.87h-3.87v-10.69c0-3.15-1.65-4.29-3.96-4.29s-4.11,1.5-4.11,4.05v10.93h-3.87v-24.5h3.87v8.71c1.08-1.53,2.88-2.58,5.16-2.58,3.78,0,6.79,2.88,6.79,7.51Z"/>
        <path class="cls-1" d="m322.06,45.55c0-1.26,1.02-2.28,2.28-2.28s2.28,1.02,2.28,2.28-1.02,2.28-2.28,2.28-2.28-.99-2.28-2.28Zm.36,23.24v-17.93h3.87v17.93h-3.87Z"/>
        <path class="cls-1" d="m348.37,58.91v1.8c0,5.4-3.57,8.53-7.27,8.53-2.25,0-4.29-.96-5.67-2.76l-.18,2.31h-3.6v-24.5h3.87v8.8c1.38-1.74,3.39-2.67,5.58-2.67,3.69,0,7.27,3.15,7.27,8.5Zm-3.87.12c0-3.45-2.01-5.1-4.53-5.1s-4.44,1.65-4.44,5.1v1.59c0,3.45,2.01,5.1,4.44,5.1s4.53-1.65,4.53-5.1v-1.59Z"/>
        <path class="cls-1" d="m352.63,45.55c0-1.26,1.02-2.28,2.28-2.28s2.28,1.02,2.28,2.28-1.02,2.28-2.28,2.28-2.28-.99-2.28-2.28Zm.36,23.24v-17.93h3.87v17.93h-3.87Z"/>
        <path class="cls-1" d="m372.66,68.4c-1.08.57-2.61.84-3.9.84-3.12,0-5.1-1.65-5.1-4.92v-9.94h-2.97v-3.51h2.97v-4.77h3.84v4.77h4.41v3.51h-4.41v9.37c0,1.56.69,1.98,1.83,1.98.93,0,1.65-.24,2.46-.57l.87,3.24Z"/>
        <path class="cls-1" d="m375.94,45.55c0-1.26,1.02-2.28,2.28-2.28s2.28,1.02,2.28,2.28-1.02,2.28-2.28,2.28-2.28-.99-2.28-2.28Zm.36,23.24v-17.93h3.87v17.93h-3.87Z"/>
        <path class="cls-1" d="m384.32,60.92v-2.25c0-5.46,3.87-8.26,8.35-8.26s8.38,2.79,8.38,8.26v2.25c0,5.49-3.9,8.32-8.38,8.32s-8.35-2.82-8.35-8.32Zm12.85-.09v-2.04c0-3.27-2.1-4.86-4.5-4.86s-4.47,1.59-4.47,4.86v2.04c0,3.27,2.07,4.89,4.47,4.89s4.5-1.62,4.5-4.89Z"/>
        <path class="cls-1" d="m421.13,57.95v10.84h-3.87v-10.66c0-3.03-1.65-4.2-3.96-4.2s-4.11,1.5-4.11,3.96v10.9h-3.87v-17.93h3.6l.18,2.28c1.05-1.65,2.91-2.73,5.28-2.73,3.75,0,6.76,2.88,6.76,7.54Z"/>
        <path class="cls-1" d="m433.48,68.79v-2.97l8.86-8.8c2.49-2.49,3.63-4.14,3.63-6.19s-1.47-3.54-4.26-3.54-4.17,1.98-4.86,4.5l-3.66-.87c.99-3.72,3.81-7.09,8.53-7.09s8.08,2.52,8.08,6.85c0,3.24-1.65,5.55-4.44,8.32l-6.34,6.25h11.32v3.54h-16.84Z"/>
        <path class="cls-1" d="m454.71,58.85v-4.62c0-6.91,4.14-10.39,9.13-10.39s9.1,3.48,9.1,10.39v4.62c0,6.94-4.14,10.39-9.1,10.39s-9.13-3.45-9.13-10.39Zm14.38-.18v-4.26c0-4.83-2.22-7.15-5.25-7.15s-5.25,2.31-5.25,7.15v4.26c0,4.86,2.22,7.15,5.25,7.15s5.25-2.28,5.25-7.15Z"/>
        <path class="cls-1" d="m477.41,68.79v-2.97l8.86-8.8c2.49-2.49,3.63-4.14,3.63-6.19s-1.47-3.54-4.26-3.54-4.17,1.98-4.86,4.5l-3.66-.87c.99-3.72,3.81-7.09,8.53-7.09s8.08,2.52,8.08,6.85c0,3.24-1.65,5.55-4.44,8.32l-6.34,6.25h11.32v3.54h-16.84Z"/>
        <path class="cls-1" d="m501.62,61.76c.81,2.13,2.4,4.02,5.64,4.02s5.13-1.65,5.13-3.87-1.8-4.11-5.58-4.11h-3.18v-3.24h3.18c3.33,0,4.98-1.56,4.98-3.75s-1.8-3.51-4.59-3.51-4.17,1.71-4.89,3.57l-3.42-1.29c1.17-3.15,3.75-5.73,8.32-5.73,4.8,0,8.38,2.43,8.38,6.73,0,3.03-1.77,4.71-3.78,5.58,2.4.87,4.35,2.88,4.35,5.95,0,4.32-3.63,7.15-8.89,7.15-4.98,0-7.84-2.76-9.07-6.22l3.42-1.26Z"/>
      </g>
      <g>
        <path class="cls-1" d="m21.78,0h6.36v33.28h-6.36v-14.21H6.64v14.21H.28V0h6.36v13.28h15.14V0Z"/>
        <path class="cls-1" d="m61.61,0l-11.74,20.52v12.75h-6.36v-12.67L31.73,0h7.08l7.85,14.65L54.52,0h7.08Z"/>
        <path class="cls-1" d="m5.34,62.09c1.58,3.48,4.57,5.71,8.58,5.71s6.19-1.38,6.19-3.89c0-2.23-1.13-3.4-4.17-4.21l-4.82-1.3c-4.41-1.17-9.23-3.64-9.23-9.63s5.14-9.72,11.74-9.72,10.81,3.76,12.63,8.02l-5.26,2.67c-1.38-2.67-3.81-4.94-7.37-4.94s-5.46,1.5-5.46,3.97,1.82,3.32,4.41,4.01l4.62,1.21c4.45,1.17,9.19,3.85,9.19,9.92s-5.51,9.63-12.47,9.63-11.7-3.32-13.93-8.78l5.34-2.67Z"/>
        <path class="cls-1" d="m52.99,72.94l-3.16-9.23h-11.82l-3.16,9.23h-6.48l11.58-33.28h7.93l11.58,33.28h-6.48Zm-12.99-14.94h7.85l-3.93-11.5-3.93,11.5Z"/>
      </g>
    </g>
  </g>
</svg>